# Blender3D v249 OBJ File: 
# www.blender3d.org
v 0.707109 -0.000000 -0.707107
v 0.831472 -0.000000 -0.555570
v 0.923882 -0.000000 -0.382683
v 0.980787 -0.000000 -0.195090
v 1.000001 0.000000 0.000001
v 0.980786 0.000000 0.195091
v 0.923880 0.000000 0.382683
v 0.831470 0.000000 0.555570
v 0.707108 0.000000 0.707106
v 0.555571 0.000000 0.831468
v 0.382685 0.000000 0.923878
v 0.195092 0.000000 0.980784
v 0.000002 0.000000 0.999999
v -0.195088 0.000000 0.980784
v -0.382681 0.000000 0.923879
v -0.555567 0.000000 0.831469
v -0.707104 0.000000 0.707107
v -0.831467 0.000000 0.555571
v -0.923877 0.000000 0.382685
v -0.980783 0.000000 0.195093
v -0.999999 0.000000 0.000003
v -0.980785 -0.000000 -0.195087
v -0.923880 -0.000000 -0.382680
v -0.831471 -0.000000 -0.555567
v -0.707110 -0.000000 -0.707104
v -0.555574 -0.000000 -0.831468
v -0.382688 -0.000000 -0.923878
v -0.195096 -0.000000 -0.980785
v -0.000006 -0.000000 -1.000001
v 0.195084 -0.000000 -0.980788
v 0.382677 -0.000000 -0.923884
v 0.555565 -0.000000 -0.831476
v 0.000001 -0.000000 -0.000001
vn -0.000000 1.000000 -0.000000
usemtl (null)
s off
f 2//1 1//1 33//1
f 33//1 3//1 2//1
f 33//1 4//1 3//1
f 33//1 5//1 4//1
f 33//1 6//1 5//1
f 33//1 7//1 6//1
f 33//1 8//1 7//1
f 33//1 9//1 8//1
f 33//1 10//1 9//1
f 33//1 11//1 10//1
f 33//1 12//1 11//1
f 33//1 13//1 12//1
f 33//1 14//1 13//1
f 33//1 15//1 14//1
f 33//1 16//1 15//1
f 33//1 17//1 16//1
f 33//1 18//1 17//1
f 33//1 19//1 18//1
f 33//1 20//1 19//1
f 33//1 21//1 20//1
f 33//1 22//1 21//1
f 33//1 23//1 22//1
f 33//1 24//1 23//1
f 33//1 25//1 24//1
f 33//1 26//1 25//1
f 33//1 27//1 26//1
f 33//1 28//1 27//1
f 33//1 29//1 28//1
f 33//1 30//1 29//1
f 33//1 31//1 30//1
f 33//1 32//1 31//1
f 33//1 1//1 32//1
